# File created by Blade
# Date/Time:  Tue Apr 07 20:41:02 2015
# Frame Rate: 120.000 fps
#------------------------------------------------------
:FULLY-SPECIFIED
:DEGREES
1707
root 1.663242 32.871411 -1.617915 10.580464 -0.353404 -1.625665
Spine -10.913303 -4.478233 -0.512685
Head 6.390807 -1.929605 0.300760
LeftShoulder -21.939076 34.768689 24.240872
LeftArm 51.620664 -61.214354 -50.074331
LeftForeArm 13.232092 -0.000000 -3.151198
LeftHand 2.170549 -0.000000 4.922275
LeftHandThumb1 -26.253704 0.000000 33.147579
RightShoulder -7.792306 9.261193 -32.891444
RightArm 6.064399 23.135065 39.330132
RightForeArm -15.757198 -0.000000 -0.820268
RightHand -0.480986 -0.000000 3.863046
RightHandThumb1 -24.326973 -0.000000 -32.862282
LeftUpLeg -3.828553 -4.688586 3.750318
LeftLeg -3.554510 -0.000000 0.000000
LeftFoot -6.882567 9.095288 -16.914285
LeftToeBase -4.917907 -0.000000 0.000000
RightUpLeg -6.852278 -3.242538 2.462336
RightLeg -0.574976 -0.000000 0.000000
RightFoot -8.382160 -8.093013 8.874836
RightToeBase 5.712541 -0.000000 -0.000000
1708
root 1.664207 32.871315 -1.605944 10.604886 -0.287248 -1.634453
Spine -10.977700 -4.521453 -0.494861
Head 6.355450 -2.083110 0.314457
LeftShoulder -21.923723 34.777296 24.240622
LeftArm 51.522048 -61.172362 -50.012913
LeftForeArm 13.226354 -0.000000 -3.217790
LeftHand 2.310668 -0.000000 4.745384
LeftHandThumb1 -26.253704 0.000000 33.147579
RightShoulder -7.802792 9.207260 -32.876932
RightArm 6.034323 23.102020 39.301332
RightForeArm -15.740912 -0.000000 -0.816041
RightHand -0.466137 0.000000 3.909014
RightHandThumb1 -24.326973 -0.000000 -32.862282
LeftUpLeg -3.830000 -4.694111 3.765511
LeftLeg -3.584966 -0.000000 0.000000
LeftFoot -6.851325 9.055309 -16.944687
LeftToeBase -4.843436 -0.000000 0.000000
RightUpLeg -6.827513 -3.333243 2.483946
RightLeg -0.633514 -0.000000 0.000000
RightFoot -8.289766 -8.055858 8.805837
RightToeBase 5.588488 -0.000000 -0.000000
1709
root 1.664767 32.871094 -1.592512 10.627584 -0.236212 -1.656326
Spine -11.041112 -4.525665 -0.480978
Head 6.325834 -2.172252 0.314848
LeftShoulder -21.938198 34.844569 24.228782
LeftArm 51.601000 -61.120579 -50.083445
LeftForeArm 13.129289 -0.000000 -3.296805
LeftHand 2.341770 -0.000000 4.703600
LeftHandThumb1 -26.253704 0.000000 33.147579
RightShoulder -7.817607 9.196968 -32.867647
RightArm 5.951828 23.017513 39.248871
RightForeArm -15.678005 -0.000000 -0.832275
RightHand -0.314989 -0.000000 3.840620
RightHandThumb1 -24.326973 -0.000000 -32.862282
LeftUpLeg -3.822361 -4.639495 3.785125
LeftLeg -3.615549 -0.000000 0.000000
LeftFoot -6.825809 8.986029 -16.952791
LeftToeBase -4.863862 -0.000000 0.000000
RightUpLeg -6.830279 -3.489443 2.531344
RightLeg -0.635435 -0.000000 0.000000
RightFoot -8.218273 -7.974842 8.737865
RightToeBase 5.445269 -0.000000 -0.000000
1710
root 1.663722 32.870434 -1.578807 10.654025 -0.177472 -1.664184
Spine -11.109041 -4.532920 -0.478645
Head 6.298003 -2.228155 0.292717
LeftShoulder -21.899051 34.883188 24.235409
LeftArm 51.525038 -61.065050 -50.019601
LeftForeArm 12.951595 0.000000 -3.319316
LeftHand 2.339163 0.000000 4.803657
LeftHandThumb1 -26.253704 0.000000 33.147579
RightShoulder -7.863161 9.152197 -32.859208
RightArm 5.936156 22.984505 39.224341
RightForeArm -15.625981 -0.000000 -0.835848
RightHand -0.377284 -0.000000 3.801530
RightHandThumb1 -24.326973 -0.000000 -32.862282
LeftUpLeg -3.814118 -4.607637 3.801408
LeftLeg -3.658268 -0.000000 0.000000
LeftFoot -6.778934 8.895958 -16.996124
LeftToeBase -4.846618 -0.000000 0.000000
RightUpLeg -6.799531 -3.592839 2.552089
RightLeg -0.705467 -0.000000 0.000000
RightFoot -8.128615 -7.904608 8.702647
RightToeBase 5.339859 -0.000000 -0.000000
